  0
SECTION
  2
HEADER
  9
$EXTMIN
 10
-13.62293
 20
-9.7448
  9
$EXTMAX
 10
13.18707
 20
6.9652
  0
ENDSEC
  0
SECTION
  2
TABLES
  0
TABLE
  2
LTYPE
 70
     6
  0
LTYPE
  2
CONTINUOUS
 70
    64
  3
Solid line
 72
    65
 73
     0
 40
0.0
  0
LTYPE
  2
DASHED
 70
    64
  3
-- -- -- -- -- -- -- -- -- -- -- -- -- -- -- -- -- -- --
 72
    65
 73
     2
 40
5.0
 49
3.0
 49
-2.0
  0
LTYPE
  2
DOT
 70
    64
  3
.......................................................
 72
    65
 73
     2
 40
1.3
 49
0.5
 49
-0.8
  0
LTYPE
  2
BORDER
 70
    64
  3
---- - ---- - ---- - ---- - ---- - ---- - ---- - ---- -
 72
    65
 73
     4
 40
6.5
 49
4.0
 49
-1.0
 49
0.5
 49
-1.0
  0
LTYPE
  2
DIVIDE
 70
    64
  3
---- - - ---- - - ---- - - ---- - - ---- - - ---- - - ----
 72
    65
 73
     6
 40
8.0
 49
4.0
 49
-1.0
 49
0.5
 49
-1.0
 49
0.5
 49
-1.0
  0
LTYPE
  2

 70
    64
  3
Fat Solid line
 72
    65
 73
     0
 40
0.0
  0
ENDTAB
  0
TABLE
  2
LAYER
 70
     1
  0
LAYER
  2
0
 70
    64
 62
     7
  6
CONTINUOUS
  0
ENDTAB
  0
TABLE
  2
STYLE
 70
     1
  0
STYLE
  2
STANDARD
 70
     0
 40
0.0
 41
1.0
 50
0.0
 71
     0
 42
0.2
  3
TXT
  4
BIGFONT
  0
ENDTAB
  0
ENDSEC
  0
SECTION
  2
ENTITIES
  0
LINE
  6
CONTINUOUS
  8
0
 62
     4
 10
-13.36293
 20
6.9652
 11
-13.36293
 21
0.2552
  0
LINE
  6
CONTINUOUS
  8
0
 62
     4
 10
-13.36293
 20
3.6052
 11
-10.78293
 21
3.6052
  0
LINE
  6
CONTINUOUS
  8
0
 62
     4
 10
-10.78293
 20
6.9652
 11
-10.78293
 21
0.2552
  0
LINE
  6
CONTINUOUS
  8
0
 62
     4
 10
-8.10293
 20
2.8352
 11
-6.04293
 21
2.8352
  0
LINE
  6
CONTINUOUS
  8
0
 62
     4
 10
-6.04293
 20
2.8352
 11
-6.04293
 21
4.1252
  0
LINE
  6
CONTINUOUS
  8
0
 62
     4
 10
-6.04293
 20
4.1252
 11
-6.55293
 21
4.8952
  0
LINE
  6
CONTINUOUS
  8
0
 62
     4
 10
-6.55293
 20
4.8952
 11
-7.59293
 21
4.8952
  0
LINE
  6
CONTINUOUS
  8
0
 62
     4
 10
-7.59293
 20
4.8952
 11
-8.10293
 21
4.1252
  0
LINE
  6
CONTINUOUS
  8
0
 62
     4
 10
-8.10293
 20
4.1252
 11
-8.10293
 21
1.0252
  0
LINE
  6
CONTINUOUS
  8
0
 62
     4
 10
-8.10293
 20
1.0252
 11
-7.59293
 21
0.2552
  0
LINE
  6
CONTINUOUS
  8
0
 62
     4
 10
-7.59293
 20
0.2552
 11
-6.55293
 21
0.2552
  0
LINE
  6
CONTINUOUS
  8
0
 62
     4
 10
-2.07293
 20
6.9652
 11
-2.07293
 21
0.2552
  0
LINE
  6
CONTINUOUS
  8
0
 62
     4
 10
-2.59293
 20
0.2552
 11
-1.55293
 21
0.2552
  0
LINE
  6
CONTINUOUS
  8
0
 62
     4
 10
2.92707
 20
6.9652
 11
2.92707
 21
0.2552
  0
LINE
  6
CONTINUOUS
  8
0
 62
     4
 10
2.40707
 20
0.2552
 11
3.44707
 21
0.2552
  0
LINE
  6
CONTINUOUS
  8
0
 62
     4
 10
7.14707
 20
4.8952
 11
6.63707
 21
4.3852
  0
LINE
  6
CONTINUOUS
  8
0
 62
     4
 10
6.63707
 20
4.3852
 11
6.63707
 21
0.7752
  0
LINE
  6
CONTINUOUS
  8
0
 62
     4
 10
6.63707
 20
0.7752
 11
7.15707
 21
0.2552
  0
LINE
  6
CONTINUOUS
  8
0
 62
     4
 10
7.15707
 20
0.2552
 11
8.44707
 21
0.2552
  0
LINE
  6
CONTINUOUS
  8
0
 62
     4
 10
8.44707
 20
0.2552
 11
8.95707
 21
0.7752
  0
LINE
  6
CONTINUOUS
  8
0
 62
     4
 10
8.95707
 20
0.7752
 11
8.95707
 21
4.3852
  0
LINE
  6
CONTINUOUS
  8
0
 62
     4
 10
8.95707
 20
4.3852
 11
8.44707
 21
4.8952
  0
LINE
  6
CONTINUOUS
  8
0
 62
     4
 10
8.44707
 20
4.8952
 11
7.15707
 21
4.8952
  0
LINE
  6
CONTINUOUS
  8
0
 62
     4
 10
11.37707
 20
-0.2648
 11
11.89707
 21
0.5152
  0
LINE
  6
CONTINUOUS
  8
0
 62
     4
 10
11.89707
 20
0.5152
 11
11.89707
 21
1.2852
  0
LINE
  6
CONTINUOUS
  8
0
 62
     4
 10
11.89707
 20
1.2852
 11
11.37707
 21
1.2852
  0
LINE
  6
CONTINUOUS
  8
0
 62
     4
 10
11.37707
 20
1.2852
 11
11.37707
 21
0.5152
  0
LINE
  6
CONTINUOUS
  8
0
 62
     4
 10
11.37707
 20
0.5152
 11
11.63707
 21
0.5152
  0
LINE
  6
CONTINUOUS
  8
0
 62
     4
 10
11.63707
 20
0.5152
 11
11.37707
 21
-0.2648
  0
LINE
  6
CONTINUOUS
  8
0
 62
     4
 10
-13.62293
 20
-5.1048
 11
-13.62293
 21
-8.9748
  0
LINE
  6
CONTINUOUS
  8
0
 62
     4
 10
-13.62293
 20
-8.9748
 11
-13.10293
 21
-9.7448
  0
LINE
  6
CONTINUOUS
  8
0
 62
     4
 10
-13.10293
 20
-9.7448
 11
-12.59293
 21
-9.7448
  0
LINE
  6
CONTINUOUS
  8
0
 62
     4
 10
-12.59293
 20
-9.7448
 11
-12.07293
 21
-8.9748
  0
LINE
  6
CONTINUOUS
  8
0
 62
     4
 10
-12.07293
 20
-8.9748
 11
-11.55293
 21
-9.7448
  0
LINE
  6
CONTINUOUS
  8
0
 62
     4
 10
-11.55293
 20
-9.7448
 11
-11.04293
 21
-9.7448
  0
LINE
  6
CONTINUOUS
  8
0
 62
     4
 10
-11.04293
 20
-9.7448
 11
-10.52293
 21
-8.9748
  0
LINE
  6
CONTINUOUS
  8
0
 62
     4
 10
-10.52293
 20
-8.9748
 11
-10.52293
 21
-5.1048
  0
LINE
  6
CONTINUOUS
  8
0
 62
     4
 10
-7.85293
 20
-5.1048
 11
-8.36293
 21
-5.6148
  0
LINE
  6
CONTINUOUS
  8
0
 62
     4
 10
-8.36293
 20
-5.6148
 11
-8.36293
 21
-9.2248
  0
LINE
  6
CONTINUOUS
  8
0
 62
     4
 10
-8.36293
 20
-9.2248
 11
-7.84293
 21
-9.7448
  0
LINE
  6
CONTINUOUS
  8
0
 62
     4
 10
-7.84293
 20
-9.7448
 11
-6.55293
 21
-9.7448
  0
LINE
  6
CONTINUOUS
  8
0
 62
     4
 10
-6.55293
 20
-9.7448
 11
-6.04293
 21
-9.2248
  0
LINE
  6
CONTINUOUS
  8
0
 62
     4
 10
-6.04293
 20
-9.2248
 11
-6.04293
 21
-5.6148
  0
LINE
  6
CONTINUOUS
  8
0
 62
     4
 10
-6.04293
 20
-5.6148
 11
-6.55293
 21
-5.1048
  0
LINE
  6
CONTINUOUS
  8
0
 62
     4
 10
-6.55293
 20
-5.1048
 11
-7.84293
 21
-5.1048
  0
LINE
  6
CONTINUOUS
  8
0
 62
     4
 10
-3.36293
 20
-5.1048
 11
-3.36293
 21
-9.7448
  0
LINE
  6
CONTINUOUS
  8
0
 62
     4
 10
-3.36293
 20
-6.1348
 11
-2.59293
 21
-5.1048
  0
LINE
  6
CONTINUOUS
  8
0
 62
     4
 10
-2.59293
 20
-5.1048
 11
-1.30293
 21
-5.1048
  0
LINE
  6
CONTINUOUS
  8
0
 62
     4
 10
-1.30293
 20
-5.1048
 11
-0.78293
 21
-5.8748
  0
LINE
  6
CONTINUOUS
  8
0
 62
     4
 10
2.92707
 20
-3.0348
 11
2.92707
 21
-9.7448
  0
LINE
  6
CONTINUOUS
  8
0
 62
     4
 10
2.40707
 20
-9.7448
 11
3.44707
 21
-9.7448
  0
LINE
  6
CONTINUOUS
  8
0
 62
     4
 10
8.95707
 20
-3.0348
 11
8.95707
 21
-9.7448
  0
LINE
  6
CONTINUOUS
  8
0
 62
     4
 10
8.95707
 20
-9.7448
 11
7.40707
 21
-9.7448
  0
LINE
  6
CONTINUOUS
  8
0
 62
     4
 10
7.40707
 20
-9.7448
 11
6.89707
 21
-8.9748
  0
LINE
  6
CONTINUOUS
  8
0
 62
     4
 10
6.89707
 20
-8.9748
 11
6.89707
 21
-5.8748
  0
LINE
  6
CONTINUOUS
  8
0
 62
     4
 10
6.89707
 20
-5.8748
 11
7.40707
 21
-5.1048
  0
LINE
  6
CONTINUOUS
  8
0
 62
     4
 10
7.40707
 20
-5.1048
 11
8.44707
 21
-5.1048
  0
LINE
  6
CONTINUOUS
  8
0
 62
     4
 10
8.44707
 20
-5.1048
 11
8.95707
 21
-5.8748
  0
LINE
  6
CONTINUOUS
  8
0
 62
     4
 10
12.92707
 20
-9.7448
 11
13.18707
 21
-9.4848
  0
LINE
  6
CONTINUOUS
  8
0
 62
     4
 10
13.18707
 20
-9.4848
 11
13.18707
 21
-9.2248
  0
LINE
  6
CONTINUOUS
  8
0
 62
     4
 10
13.18707
 20
-9.2248
 11
12.92707
 21
-8.9748
  0
LINE
  6
CONTINUOUS
  8
0
 62
     4
 10
12.92707
 20
-8.9748
 11
12.66707
 21
-9.2248
  0
LINE
  6
CONTINUOUS
  8
0
 62
     4
 10
12.66707
 20
-9.2248
 11
12.66707
 21
-9.4848
  0
LINE
  6
CONTINUOUS
  8
0
 62
     4
 10
12.66707
 20
-9.4848
 11
12.92707
 21
-9.7448
  0
LINE
  6
CONTINUOUS
  8
0
 62
     4
 10
12.92707
 20
-8.1948
 11
12.92707
 21
-3.8148
  0
LINE
  6
CONTINUOUS
  8
0
 62
     4
 10
12.92707
 20
-3.8148
 11
12.92707
 21
-7.9348
  0
ENDSEC
  0
EOF
