  0
SECTION
  2
HEADER
  9
$EXTMIN
 10
-44.6107242478
 20
-50.7182255226
  9
$EXTMAX
 10
56.8892757522
 20
50.7182255226
  0
ENDSEC
  0
SECTION
  2
TABLES
  0
TABLE
  2
LTYPE
 70
     6
  0
LTYPE
  2
CONTINUOUS
 70
    64
  3
Solid line
 72
    65
 73
     0
 40
0.0
  0
LTYPE
  2
DASHED
 70
    64
  3
-- -- -- -- -- -- -- -- -- -- -- -- -- -- -- -- -- -- --
 72
    65
 73
     2
 40
5.0
 49
3.0
 49
-2.0
  0
LTYPE
  2
DOT
 70
    64
  3
.......................................................
 72
    65
 73
     2
 40
1.3
 49
0.5
 49
-0.8
  0
LTYPE
  2
BORDER
 70
    64
  3
---- - ---- - ---- - ---- - ---- - ---- - ---- - ---- -
 72
    65
 73
     4
 40
6.5
 49
4.0
 49
-1.0
 49
0.5
 49
-1.0
  0
LTYPE
  2
DIVIDE
 70
    64
  3
---- - - ---- - - ---- - - ---- - - ---- - - ---- - - ----
 72
    65
 73
     6
 40
8.0
 49
4.0
 49
-1.0
 49
0.5
 49
-1.0
 49
0.5
 49
-1.0
  0
LTYPE
  2

 70
    64
  3
Fat Solid line
 72
    65
 73
     0
 40
0.0
  0
ENDTAB
  0
TABLE
  2
LAYER
 70
     5
  0
LAYER
  2
9
 70
    64
 62
     7
  6
CONTINUOUS
  0
ENDTAB
  0
TABLE
  2
STYLE
 70
     1
  0
STYLE
  2
STANDARD
 70
     0
 40
0.0
 41
1.0
 50
0.0
 71
     0
 42
0.2
  3
TXT
  4
BIGFONT
  0
ENDTAB
  0
ENDSEC
  0
SECTION
  2
ENTITIES
  0
ARC
  6
CONTINUOUS
  8
9
 62
     4
 10
0.0
 20
0.0
 40
5.6
 50
58.5527560356
 51
161.4472439644
  0
ARC
  6
CONTINUOUS
  8
9
 62
     4
 10
-6.2570051923
 20
2.0999728626
 40
1.0
 50
290.0
 51
341.4472439644
  0
LINE
  6
CONTINUOUS
  8
9
 62
     4
 10
-6.1896582314
 20
1.0603073792
 11
-5.914985049
 21
1.1602802418
  0
ARC
  6
CONTINUOUS
  8
9
 62
     4
 10
-6.5316783747
 20
2.0
 40
1.0
 50
270.0
 51
290.0
  0
LINE
  6
CONTINUOUS
  8
9
 62
     4
 10
-6.5316783747
 20
1.0
 11
-43.6107242478
 21
1.0
  0
ARC
  6
CONTINUOUS
  8
9
 62
     4
 10
-43.6107242478
 20
0.0
 40
1.0
 50
90.0
 51
270.0
  0
LINE
  6
CONTINUOUS
  8
9
 62
     4
 10
-6.5316783747
 20
-1.0
 11
-43.6107242478
 21
-1.0
  0
ARC
  6
CONTINUOUS
  8
9
 62
     4
 10
-6.5316783747
 20
-2.0
 40
1.0
 50
70.0
 51
90.0
  0
LINE
  6
CONTINUOUS
  8
9
 62
     4
 10
-6.1896582314
 20
-1.0603073792
 11
3.7853276647
 21
-4.6909053326
  0
ARC
  6
CONTINUOUS
  8
9
 62
     4
 10
3.4433075214
 20
-5.6305979534
 40
1.0
 50
340.0
 51
70.0
  0
LINE
  6
CONTINUOUS
  8
9
 62
     4
 10
-11.414613689
 20
-49.3762053793
 11
4.3830001422
 21
-5.9726180967
  0
ARC
  6
CONTINUOUS
  8
9
 62
     4
 10
-10.4749210682
 20
-49.7182255226
 40
1.0
 50
160.0
 51
340.0
  0
LINE
  6
CONTINUOUS
  8
9
 62
     4
 10
6.2623853838
 20
-6.6566583834
 11
-9.5352284475
 21
-50.0602456659
  0
ARC
  6
CONTINUOUS
  8
9
 62
     4
 10
7.2020780046
 20
-6.9986785267
 40
1.0
 50
340.0
 51
160.0
  0
LINE
  6
CONTINUOUS
  8
9
 62
     4
 10
8.1417706253
 20
-7.34069867
 11
-2.0359626165
 21
-35.3037909333
  0
ARC
  6
CONTINUOUS
  8
9
 62
     4
 10
-1.0962699957
 20
-35.6458110766
 40
1.0
 50
160.0
 51
340.0
  0
LINE
  6
CONTINUOUS
  8
9
 62
     4
 10
10.0211558669
 20
-8.0247389567
 11
-0.1565773749
 21
-35.9878312199
  0
ARC
  6
CONTINUOUS
  8
9
 62
     4
 10
10.9608484877
 20
-8.3667591
 40
1.0
 50
340.0
 51
160.0
  0
LINE
  6
CONTINUOUS
  8
9
 62
     4
 10
11.9005411085
 20
-8.7087792433
 11
3.9229078586
 21
-30.6271464582
  0
ARC
  6
CONTINUOUS
  8
9
 62
     4
 10
4.8626004794
 20
-30.9691666015
 40
1.0
 50
160.0
 51
340.0
  0
LINE
  6
CONTINUOUS
  8
9
 62
     4
 10
13.7799263501
 20
-9.39281953
 11
5.8022931001
 21
-31.3111867448
  0
ARC
  6
CONTINUOUS
  8
9
 62
     4
 10
14.7196189708
 20
-9.7348396733
 40
1.0
 50
0.0
 51
160.0
  0
LINE
  6
CONTINUOUS
  8
9
 62
     4
 10
15.7196189708
 20
-9.7348396733
 11
15.7196189708
 21
-26.0
  0
ARC
  6
CONTINUOUS
  8
9
 62
     4
 10
16.7196189708
 20
-26.0
 40
1.0
 50
180.0
 51
360.0
  0
LINE
  6
CONTINUOUS
  8
9
 62
     4
 10
17.7196189708
 20
-17.409532903
 11
17.7196189708
 21
-26.0
  0
ARC
  6
CONTINUOUS
  8
9
 62
     4
 10
18.7196189708
 20
-17.409532903
 40
1.0
 50
0.0
 51
180.0
  0
LINE
  6
CONTINUOUS
  8
9
 62
     4
 10
19.7196189708
 20
-17.409532903
 11
19.7196189708
 21
-26.0
  0
ARC
  6
CONTINUOUS
  8
9
 62
     4
 10
20.7196189708
 20
-26.0
 40
1.0
 50
180.0
 51
360.0
  0
LINE
  6
CONTINUOUS
  8
9
 62
     4
 10
21.7196189708
 20
-17.409532903
 11
21.7196189708
 21
-26.0
  0
ARC
  6
CONTINUOUS
  8
9
 62
     4
 10
22.7196189708
 20
-17.409532903
 40
1.0
 50
0.0
 51
180.0
  0
LINE
  6
CONTINUOUS
  8
9
 62
     4
 10
23.7196189708
 20
-17.409532903
 11
23.7196189708
 21
-26.0
  0
ARC
  6
CONTINUOUS
  8
9
 62
     4
 10
24.7196189708
 20
-26.0
 40
1.0
 50
180.0
 51
360.0
  0
LINE
  6
CONTINUOUS
  8
9
 62
     4
 10
25.7196189708
 20
-17.6007691728
 11
25.7196189708
 21
-26.0
  0
ARC
  6
CONTINUOUS
  8
9
 62
     4
 10
22.7196189708
 20
-17.6007691728
 40
3.0
 50
0.0
 51
45.0
  0
LINE
  6
CONTINUOUS
  8
9
 62
     4
 10
24.8409393144
 20
-15.4794488292
 11
20.0685972664
 21
-10.7071067812
  0
ARC
  6
CONTINUOUS
  8
9
 62
     4
 10
20.7757040475
 20
-10.0
 40
1.0
 50
90.0
 51
225.0
  0
LINE
  6
CONTINUOUS
  8
9
 62
     4
 10
20.7757040475
 20
-9.0
 11
39.8892757522
 21
-9.0
  0
ARC
  6
CONTINUOUS
  8
9
 62
     4
 10
39.8892757522
 20
-8.0
 40
1.0
 50
270.0
 51
90.0
  0
LINE
  6
CONTINUOUS
  8
9
 62
     4
 10
39.8892757522
 20
-7.0
 11
26.8892757522
 21
-7.0
  0
ARC
  6
CONTINUOUS
  8
9
 62
     4
 10
26.8892757522
 20
-6.0
 40
1.0
 50
90.0
 51
270.0
  0
LINE
  6
CONTINUOUS
  8
9
 62
     4
 10
45.8892757522
 20
-5.0
 11
26.8892757522
 21
-5.0
  0
ARC
  6
CONTINUOUS
  8
9
 62
     4
 10
45.8892757522
 20
-4.0
 40
1.0
 50
270.0
 51
90.0
  0
LINE
  6
CONTINUOUS
  8
9
 62
     4
 10
26.7553688339
 20
-3.0
 11
45.8892757522
 21
-3.0
  0
ARC
  6
CONTINUOUS
  8
9
 62
     4
 10
26.7553688339
 20
-2.0
 40
1.0
 50
90.0
 51
270.0
  0
LINE
  6
CONTINUOUS
  8
9
 62
     4
 10
26.7553688339
 20
-1.0
 11
55.8892757522
 21
-1.0
  0
ARC
  6
CONTINUOUS
  8
9
 62
     4
 10
55.8892757522
 20
0.0
 40
1.0
 50
270.0
 51
90.0
  0
LINE
  6
CONTINUOUS
  8
9
 62
     4
 10
26.7553688339
 20
1.0
 11
55.8892757522
 21
1.0
  0
ARC
  6
CONTINUOUS
  8
9
 62
     4
 10
26.7553688339
 20
2.0
 40
1.0
 50
90.0
 51
270.0
  0
LINE
  6
CONTINUOUS
  8
9
 62
     4
 10
26.7553688339
 20
3.0
 11
45.8892757522
 21
3.0
  0
ARC
  6
CONTINUOUS
  8
9
 62
     4
 10
45.8892757522
 20
4.0
 40
1.0
 50
270.0
 51
90.0
  0
LINE
  6
CONTINUOUS
  8
9
 62
     4
 10
26.7553688339
 20
5.0
 11
45.8892757522
 21
5.0
  0
ARC
  6
CONTINUOUS
  8
9
 62
     4
 10
26.7553688339
 20
6.0
 40
1.0
 50
90.0
 51
270.0
  0
LINE
  6
CONTINUOUS
  8
9
 62
     4
 10
26.7553688339
 20
7.0
 11
39.8892757522
 21
7.0
  0
ARC
  6
CONTINUOUS
  8
9
 62
     4
 10
39.8892757522
 20
8.0
 40
1.0
 50
270.0
 51
90.0
  0
LINE
  6
CONTINUOUS
  8
9
 62
     4
 10
20.7757040475
 20
9.0
 11
39.8892757522
 21
9.0
  0
ARC
  6
CONTINUOUS
  8
9
 62
     4
 10
20.7757040475
 20
10.0
 40
1.0
 50
135.0
 51
270.0
  0
LINE
  6
CONTINUOUS
  8
9
 62
     4
 10
24.8409393144
 20
15.4794488292
 11
20.0685972664
 21
10.7071067812
  0
ARC
  6
CONTINUOUS
  8
9
 62
     4
 10
22.7196189708
 20
17.6007691728
 40
3.0
 50
315.0
 51
360.0
  0
LINE
  6
CONTINUOUS
  8
9
 62
     4
 10
25.7196189708
 20
17.6007691728
 11
25.7196189708
 21
26.0
  0
ARC
  6
CONTINUOUS
  8
9
 62
     4
 10
24.7196189708
 20
26.0
 40
1.0
 50
0.0
 51
180.0
  0
LINE
  6
CONTINUOUS
  8
9
 62
     4
 10
23.7196189708
 20
17.409532903
 11
23.7196189708
 21
26.0
  0
ARC
  6
CONTINUOUS
  8
9
 62
     4
 10
22.7196189708
 20
17.409532903
 40
1.0
 50
180.0
 51
360.0
  0
LINE
  6
CONTINUOUS
  8
9
 62
     4
 10
21.7196189708
 20
17.409532903
 11
21.7196189708
 21
26.0
  0
ARC
  6
CONTINUOUS
  8
9
 62
     4
 10
20.7196189708
 20
26.0
 40
1.0
 50
0.0
 51
180.0
  0
LINE
  6
CONTINUOUS
  8
9
 62
     4
 10
19.7196189708
 20
17.409532903
 11
19.7196189708
 21
26.0
  0
ARC
  6
CONTINUOUS
  8
9
 62
     4
 10
18.7196189708
 20
17.409532903
 40
1.0
 50
180.0
 51
360.0
  0
LINE
  6
CONTINUOUS
  8
9
 62
     4
 10
17.7196189708
 20
17.409532903
 11
17.7196189708
 21
26.0
  0
ARC
  6
CONTINUOUS
  8
9
 62
     4
 10
16.7196189708
 20
26.0
 40
1.0
 50
0.0
 51
180.0
  0
LINE
  6
CONTINUOUS
  8
9
 62
     4
 10
15.7196189708
 20
9.7348396733
 11
15.7196189708
 21
26.0
  0
ARC
  6
CONTINUOUS
  8
9
 62
     4
 10
14.7196189708
 20
9.7348396733
 40
1.0
 50
200.0
 51
360.0
  0
LINE
  6
CONTINUOUS
  8
9
 62
     4
 10
13.7799263501
 20
9.39281953
 11
5.8022931001
 21
31.3111867448
  0
ARC
  6
CONTINUOUS
  8
9
 62
     4
 10
4.8626004794
 20
30.9691666015
 40
1.0
 50
20.0
 51
200.0
  0
LINE
  6
CONTINUOUS
  8
9
 62
     4
 10
11.9005411085
 20
8.7087792433
 11
3.9229078586
 21
30.6271464582
  0
ARC
  6
CONTINUOUS
  8
9
 62
     4
 10
10.9608484877
 20
8.3667591
 40
1.0
 50
200.0
 51
20.0
  0
LINE
  6
CONTINUOUS
  8
9
 62
     4
 10
10.0211558669
 20
8.0247389567
 11
-0.1565773749
 21
35.9878312199
  0
ARC
  6
CONTINUOUS
  8
9
 62
     4
 10
-1.0962699957
 20
35.6458110766
 40
1.0
 50
20.0
 51
200.0
  0
LINE
  6
CONTINUOUS
  8
9
 62
     4
 10
8.1417706253
 20
7.34069867
 11
-2.0359626165
 21
35.3037909333
  0
ARC
  6
CONTINUOUS
  8
9
 62
     4
 10
7.2020780046
 20
6.9986785267
 40
1.0
 50
200.0
 51
20.0
  0
LINE
  6
CONTINUOUS
  8
9
 62
     4
 10
-9.5352284475
 20
50.0602456659
 11
6.2623853838
 21
6.6566583834
  0
ARC
  6
CONTINUOUS
  8
9
 62
     4
 10
-10.4749210682
 20
49.7182255226
 40
1.0
 50
20.0
 51
200.0
  0
LINE
  6
CONTINUOUS
  8
9
 62
     4
 10
-11.414613689
 20
49.3762053793
 11
4.3830001422
 21
5.9726180967
  0
ARC
  6
CONTINUOUS
  8
9
 62
     4
 10
3.4433075214
 20
5.6305979534
 40
1.0
 50
238.5527560356
 51
20.0
  0
ENDSEC
  0
EOF
