  0
SECTION
  2
HEADER
  9
$EXTMIN
 10
-19.18626
 20
-9.38704
  9
$EXTMAX
 10
22.36374
 20
7.58296
  0
ENDSEC
  0
SECTION
  2
TABLES
  0
TABLE
  2
LTYPE
 70
     6
  0
LTYPE
  2
CONTINUOUS
 70
    64
  3
Solid line
 72
    65
 73
     0
 40
0.0
  0
LTYPE
  2
DASHED
 70
    64
  3
-- -- -- -- -- -- -- -- -- -- -- -- -- -- -- -- -- -- --
 72
    65
 73
     2
 40
5.0
 49
3.0
 49
-2.0
  0
LTYPE
  2
DOT
 70
    64
  3
.......................................................
 72
    65
 73
     2
 40
1.3
 49
0.5
 49
-0.8
  0
LTYPE
  2
BORDER
 70
    64
  3
---- - ---- - ---- - ---- - ---- - ---- - ---- - ---- -
 72
    65
 73
     4
 40
6.5
 49
4.0
 49
-1.0
 49
0.5
 49
-1.0
  0
LTYPE
  2
DIVIDE
 70
    64
  3
---- - - ---- - - ---- - - ---- - - ---- - - ---- - - ----
 72
    65
 73
     6
 40
8.0
 49
4.0
 49
-1.0
 49
0.5
 49
-1.0
 49
0.5
 49
-1.0
  0
LTYPE
  2

 70
    64
  3
Fat Solid line
 72
    65
 73
     0
 40
0.0
  0
ENDTAB
  0
TABLE
  2
LAYER
 70
     1
  0
LAYER
  2
0
 70
    64
 62
     7
  6
CONTINUOUS
  0
ENDTAB
  0
TABLE
  2
STYLE
 70
     1
  0
STYLE
  2
STANDARD
 70
     0
 40
0.0
 41
1.0
 50
0.0
 71
     0
 42
0.2
  3
TXT
  4
BIGFONT
  0
ENDTAB
  0
ENDSEC
  0
SECTION
  2
ENTITIES
  0
LINE
  6
CONTINUOUS
  8
0
 62
     4
 10
-19.18626
 20
1.64296
 11
-19.18626
 21
6.55296
  0
LINE
  6
CONTINUOUS
  8
0
 62
     4
 10
-19.18626
 20
6.55296
 11
-18.41626
 21
7.58296
  0
LINE
  6
CONTINUOUS
  8
0
 62
     4
 10
-18.41626
 20
7.58296
 11
-17.37626
 21
7.58296
  0
LINE
  6
CONTINUOUS
  8
0
 62
     4
 10
-17.37626
 20
7.58296
 11
-16.60626
 21
6.55296
  0
LINE
  6
CONTINUOUS
  8
0
 62
     4
 10
-16.60626
 20
6.55296
 11
-16.60626
 21
1.64296
  0
LINE
  6
CONTINUOUS
  8
0
 62
     4
 10
-16.60626
 20
1.64296
 11
-17.37626
 21
0.61296
  0
LINE
  6
CONTINUOUS
  8
0
 62
     4
 10
-17.37626
 20
0.61296
 11
-18.41626
 21
0.61296
  0
LINE
  6
CONTINUOUS
  8
0
 62
     4
 10
-18.41626
 20
0.61296
 11
-19.18626
 21
1.64296
  0
LINE
  6
CONTINUOUS
  8
0
 62
     4
 10
-14.18626
 20
5.51296
 11
-14.18626
 21
2.93296
  0
LINE
  6
CONTINUOUS
  8
0
 62
     4
 10
-14.18626
 20
2.93296
 11
-12.89626
 21
0.87296
  0
LINE
  6
CONTINUOUS
  8
0
 62
     4
 10
-12.89626
 20
0.87296
 11
-11.60626
 21
2.68296
  0
LINE
  6
CONTINUOUS
  8
0
 62
     4
 10
-11.60626
 20
2.68296
 11
-11.60626
 21
5.51296
  0
LINE
  6
CONTINUOUS
  8
0
 62
     4
 10
-8.92626
 20
3.45296
 11
-6.86626
 21
3.45296
  0
LINE
  6
CONTINUOUS
  8
0
 62
     4
 10
-6.86626
 20
3.45296
 11
-6.86626
 21
4.74296
  0
LINE
  6
CONTINUOUS
  8
0
 62
     4
 10
-6.86626
 20
4.74296
 11
-7.37626
 21
5.51296
  0
LINE
  6
CONTINUOUS
  8
0
 62
     4
 10
-7.37626
 20
5.51296
 11
-8.41626
 21
5.51296
  0
LINE
  6
CONTINUOUS
  8
0
 62
     4
 10
-8.41626
 20
5.51296
 11
-8.92626
 21
4.74296
  0
LINE
  6
CONTINUOUS
  8
0
 62
     4
 10
-8.92626
 20
4.74296
 11
-8.92626
 21
1.64296
  0
LINE
  6
CONTINUOUS
  8
0
 62
     4
 10
-8.92626
 20
1.64296
 11
-8.41626
 21
0.87296
  0
LINE
  6
CONTINUOUS
  8
0
 62
     4
 10
-8.41626
 20
0.87296
 11
-7.37626
 21
0.87296
  0
LINE
  6
CONTINUOUS
  8
0
 62
     4
 10
-4.18626
 20
5.51296
 11
-4.18626
 21
0.87296
  0
LINE
  6
CONTINUOUS
  8
0
 62
     4
 10
-4.18626
 20
4.48296
 11
-3.41626
 21
5.51296
  0
LINE
  6
CONTINUOUS
  8
0
 62
     4
 10
-3.41626
 20
5.51296
 11
-2.12626
 21
5.51296
  0
LINE
  6
CONTINUOUS
  8
0
 62
     4
 10
-2.12626
 20
5.51296
 11
-1.60626
 21
4.74296
  0
LINE
  6
CONTINUOUS
  8
0
 62
     4
 10
3.13374
 20
4.74296
 11
2.62374
 21
5.51296
  0
LINE
  6
CONTINUOUS
  8
0
 62
     4
 10
2.62374
 20
5.51296
 11
1.58374
 21
5.51296
  0
LINE
  6
CONTINUOUS
  8
0
 62
     4
 10
1.58374
 20
5.51296
 11
1.07374
 21
4.74296
  0
LINE
  6
CONTINUOUS
  8
0
 62
     4
 10
1.07374
 20
4.74296
 11
1.07374
 21
1.64296
  0
LINE
  6
CONTINUOUS
  8
0
 62
     4
 10
1.07374
 20
1.64296
 11
1.58374
 21
0.87296
  0
LINE
  6
CONTINUOUS
  8
0
 62
     4
 10
1.58374
 20
0.87296
 11
2.62374
 21
0.87296
  0
LINE
  6
CONTINUOUS
  8
0
 62
     4
 10
2.62374
 20
0.87296
 11
3.13374
 21
1.64296
  0
LINE
  6
CONTINUOUS
  8
0
 62
     4
 10
6.32374
 20
5.51296
 11
5.81374
 21
5.00296
  0
LINE
  6
CONTINUOUS
  8
0
 62
     4
 10
5.81374
 20
5.00296
 11
5.81374
 21
1.39296
  0
LINE
  6
CONTINUOUS
  8
0
 62
     4
 10
5.81374
 20
1.39296
 11
6.33374
 21
0.87296
  0
LINE
  6
CONTINUOUS
  8
0
 62
     4
 10
6.33374
 20
0.87296
 11
7.62374
 21
0.87296
  0
LINE
  6
CONTINUOUS
  8
0
 62
     4
 10
7.62374
 20
0.87296
 11
8.13374
 21
1.39296
  0
LINE
  6
CONTINUOUS
  8
0
 62
     4
 10
8.13374
 20
1.39296
 11
8.13374
 21
5.00296
  0
LINE
  6
CONTINUOUS
  8
0
 62
     4
 10
8.13374
 20
5.00296
 11
7.62374
 21
5.51296
  0
LINE
  6
CONTINUOUS
  8
0
 62
     4
 10
7.62374
 20
5.51296
 11
6.33374
 21
5.51296
  0
LINE
  6
CONTINUOUS
  8
0
 62
     4
 10
10.55374
 20
0.87296
 11
10.55374
 21
5.51296
  0
LINE
  6
CONTINUOUS
  8
0
 62
     4
 10
10.55374
 20
5.51296
 11
11.33374
 21
5.51296
  0
LINE
  6
CONTINUOUS
  8
0
 62
     4
 10
11.33374
 20
5.51296
 11
11.84374
 21
4.74296
  0
LINE
  6
CONTINUOUS
  8
0
 62
     4
 10
11.84374
 20
4.74296
 11
12.36374
 21
5.51296
  0
LINE
  6
CONTINUOUS
  8
0
 62
     4
 10
12.36374
 20
5.51296
 11
12.87374
 21
5.51296
  0
LINE
  6
CONTINUOUS
  8
0
 62
     4
 10
12.87374
 20
5.51296
 11
13.39374
 21
4.74296
  0
LINE
  6
CONTINUOUS
  8
0
 62
     4
 10
13.39374
 20
4.74296
 11
13.39374
 21
0.87296
  0
LINE
  6
CONTINUOUS
  8
0
 62
     4
 10
11.84374
 20
4.74296
 11
11.84374
 21
0.87296
  0
LINE
  6
CONTINUOUS
  8
0
 62
     4
 10
16.07374
 20
3.45296
 11
18.13374
 21
3.45296
  0
LINE
  6
CONTINUOUS
  8
0
 62
     4
 10
18.13374
 20
3.45296
 11
18.13374
 21
4.74296
  0
LINE
  6
CONTINUOUS
  8
0
 62
     4
 10
18.13374
 20
4.74296
 11
17.62374
 21
5.51296
  0
LINE
  6
CONTINUOUS
  8
0
 62
     4
 10
17.62374
 20
5.51296
 11
16.58374
 21
5.51296
  0
LINE
  6
CONTINUOUS
  8
0
 62
     4
 10
16.58374
 20
5.51296
 11
16.07374
 21
4.74296
  0
LINE
  6
CONTINUOUS
  8
0
 62
     4
 10
16.07374
 20
4.74296
 11
16.07374
 21
1.64296
  0
LINE
  6
CONTINUOUS
  8
0
 62
     4
 10
16.07374
 20
1.64296
 11
16.58374
 21
0.87296
  0
LINE
  6
CONTINUOUS
  8
0
 62
     4
 10
16.58374
 20
0.87296
 11
17.62374
 21
0.87296
  0
LINE
  6
CONTINUOUS
  8
0
 62
     4
 10
-16.60626
 20
-3.19704
 11
-17.12626
 21
-2.41704
  0
LINE
  6
CONTINUOUS
  8
0
 62
     4
 10
-17.12626
 20
-2.41704
 11
-18.66626
 21
-2.41704
  0
LINE
  6
CONTINUOUS
  8
0
 62
     4
 10
-18.66626
 20
-2.41704
 11
-19.18626
 21
-3.19704
  0
LINE
  6
CONTINUOUS
  8
0
 62
     4
 10
-19.18626
 20
-3.19704
 11
-19.18626
 21
-8.35704
  0
LINE
  6
CONTINUOUS
  8
0
 62
     4
 10
-19.18626
 20
-8.35704
 11
-18.66626
 21
-9.12704
  0
LINE
  6
CONTINUOUS
  8
0
 62
     4
 10
-18.66626
 20
-9.12704
 11
-17.12626
 21
-9.12704
  0
LINE
  6
CONTINUOUS
  8
0
 62
     4
 10
-17.12626
 20
-9.12704
 11
-16.60626
 21
-8.35704
  0
LINE
  6
CONTINUOUS
  8
0
 62
     4
 10
-14.18626
 20
-8.35704
 11
-14.18626
 21
-3.44704
  0
LINE
  6
CONTINUOUS
  8
0
 62
     4
 10
-14.18626
 20
-3.44704
 11
-13.41626
 21
-2.41704
  0
LINE
  6
CONTINUOUS
  8
0
 62
     4
 10
-13.41626
 20
-2.41704
 11
-12.37626
 21
-2.41704
  0
LINE
  6
CONTINUOUS
  8
0
 62
     4
 10
-12.37626
 20
-2.41704
 11
-11.60626
 21
-3.44704
  0
LINE
  6
CONTINUOUS
  8
0
 62
     4
 10
-11.60626
 20
-3.44704
 11
-11.60626
 21
-8.35704
  0
LINE
  6
CONTINUOUS
  8
0
 62
     4
 10
-11.60626
 20
-8.35704
 11
-12.37626
 21
-9.38704
  0
LINE
  6
CONTINUOUS
  8
0
 62
     4
 10
-12.37626
 20
-9.38704
 11
-13.41626
 21
-9.38704
  0
LINE
  6
CONTINUOUS
  8
0
 62
     4
 10
-13.41626
 20
-9.38704
 11
-14.18626
 21
-8.35704
  0
LINE
  6
CONTINUOUS
  8
0
 62
     4
 10
-9.18626
 20
-2.41704
 11
-9.18626
 21
-4.48704
  0
LINE
  6
CONTINUOUS
  8
0
 62
     4
 10
-9.18626
 20
-4.48704
 11
-7.89626
 21
-9.38704
  0
LINE
  6
CONTINUOUS
  8
0
 62
     4
 10
-7.89626
 20
-9.38704
 11
-6.60626
 21
-4.48704
  0
LINE
  6
CONTINUOUS
  8
0
 62
     4
 10
-6.60626
 20
-4.48704
 11
-6.60626
 21
-2.41704
  0
LINE
  6
CONTINUOUS
  8
0
 62
     4
 10
-4.18626
 20
-2.41704
 11
-2.12626
 21
-2.41704
  0
LINE
  6
CONTINUOUS
  8
0
 62
     4
 10
-3.15626
 20
-2.41704
 11
-3.15626
 21
-9.12704
  0
LINE
  6
CONTINUOUS
  8
0
 62
     4
 10
-4.18626
 20
-9.12704
 11
-2.12626
 21
-9.12704
  0
LINE
  6
CONTINUOUS
  8
0
 62
     4
 10
0.81374
 20
-2.41704
 11
0.81374
 21
-9.12704
  0
LINE
  6
CONTINUOUS
  8
0
 62
     4
 10
0.81374
 20
-2.41704
 11
2.36374
 21
-2.41704
  0
LINE
  6
CONTINUOUS
  8
0
 62
     4
 10
2.36374
 20
-2.41704
 11
3.39374
 21
-3.70704
  0
LINE
  6
CONTINUOUS
  8
0
 62
     4
 10
3.39374
 20
-3.70704
 11
3.39374
 21
-7.83704
  0
LINE
  6
CONTINUOUS
  8
0
 62
     4
 10
3.39374
 20
-7.83704
 11
2.36374
 21
-9.12704
  0
LINE
  6
CONTINUOUS
  8
0
 62
     4
 10
2.36374
 20
-9.12704
 11
0.81374
 21
-9.12704
  0
LINE
  6
CONTINUOUS
  8
0
 62
     4
 10
5.81374
 20
-5.64704
 11
8.51374
 21
-5.64704
  0
LINE
  6
CONTINUOUS
  8
0
 62
     4
 10
11.07374
 20
-3.70704
 11
12.10374
 21
-2.41704
  0
LINE
  6
CONTINUOUS
  8
0
 62
     4
 10
12.10374
 20
-2.41704
 11
12.10374
 21
-9.12704
  0
LINE
  6
CONTINUOUS
  8
0
 62
     4
 10
11.07374
 20
-9.12704
 11
13.13374
 21
-9.12704
  0
LINE
  6
CONTINUOUS
  8
0
 62
     4
 10
18.39374
 20
-5.77704
 11
16.33374
 21
-5.77704
  0
LINE
  6
CONTINUOUS
  8
0
 62
     4
 10
16.33374
 20
-5.77704
 11
15.81374
 21
-4.99704
  0
LINE
  6
CONTINUOUS
  8
0
 62
     4
 10
15.81374
 20
-4.99704
 11
15.81374
 21
-3.19704
  0
LINE
  6
CONTINUOUS
  8
0
 62
     4
 10
15.81374
 20
-3.19704
 11
16.33374
 21
-2.41704
  0
LINE
  6
CONTINUOUS
  8
0
 62
     4
 10
16.33374
 20
-2.41704
 11
17.87374
 21
-2.41704
  0
LINE
  6
CONTINUOUS
  8
0
 62
     4
 10
17.87374
 20
-2.41704
 11
18.39374
 21
-3.19704
  0
LINE
  6
CONTINUOUS
  8
0
 62
     4
 10
18.39374
 20
-3.19704
 11
18.39374
 21
-8.09704
  0
LINE
  6
CONTINUOUS
  8
0
 62
     4
 10
18.39374
 20
-8.09704
 11
17.62374
 21
-9.12704
  0
LINE
  6
CONTINUOUS
  8
0
 62
     4
 10
17.62374
 20
-9.12704
 11
16.33374
 21
-9.12704
  0
LINE
  6
CONTINUOUS
  8
0
 62
     4
 10
22.10374
 20
-9.12704
 11
22.36374
 21
-8.86704
  0
LINE
  6
CONTINUOUS
  8
0
 62
     4
 10
22.36374
 20
-8.86704
 11
22.36374
 21
-8.60704
  0
LINE
  6
CONTINUOUS
  8
0
 62
     4
 10
22.36374
 20
-8.60704
 11
22.10374
 21
-8.35704
  0
LINE
  6
CONTINUOUS
  8
0
 62
     4
 10
22.10374
 20
-8.35704
 11
21.84374
 21
-8.60704
  0
LINE
  6
CONTINUOUS
  8
0
 62
     4
 10
21.84374
 20
-8.60704
 11
21.84374
 21
-8.86704
  0
LINE
  6
CONTINUOUS
  8
0
 62
     4
 10
21.84374
 20
-8.86704
 11
22.10374
 21
-9.12704
  0
LINE
  6
CONTINUOUS
  8
0
 62
     4
 10
22.10374
 20
-7.57704
 11
22.10374
 21
-3.19704
  0
LINE
  6
CONTINUOUS
  8
0
 62
     4
 10
22.10374
 20
-3.19704
 11
22.10374
 21
-7.31704
  0
ENDSEC
  0
EOF
